<?xml version="1.0" encoding="utf-8"?>
<!-- Generator: Adobe Illustrator 23.0.0, SVG Export Plug-In . SVG Version: 6.00 Build 0)  -->
<svg version="1.1" id="레이어_1" xmlns="http://www.w3.org/2000/svg" xmlns:xlink="http://www.w3.org/1999/xlink" x="0px"
	 y="0px" viewBox="0 0 1000 1000" style="enable-background:new 0 0 1000 1000;" xml:space="preserve">
<style type="text/css">
	.st0{fill:#E84C36;stroke:#E84C36;stroke-miterlimit:10;}
	.st1{fill:#FFFFFF;stroke:#E84C36;stroke-miterlimit:10;}
</style>
<polygon class="st0" points="108.5,943.6 184.3,943.6 184.3,873.3 465.6,873.3 465.6,943.6 540.3,943.6 540.3,320.5 108.5,320.5 "/>
<rect x="198.8" y="386.5" class="st1" width="239.6" height="53.8"/>
<path class="st0" d="M108.5,253.5c1.3-27.1,2-59.3,1.1-95.6c-0.2-7-0.3-9.7,0-13.2c2.1-25,21.4-56.6,89-91.2
	c128.9-0.4,257.9-0.7,386.8-1.1c-13.6,18.4-37,55.3-45.1,107.7c-6,38.7-1.3,70.9,3.3,91.2C398.6,252.1,253.5,252.8,108.5,253.5z"/>
<path class="st0" d="M608.5,873.3c69.6-0.7,139.2-1.5,208.8-2.2c0,24.6,0,49.1,0,73.7c24.6,0,49.1,0,73.7,0c0-262.6,0-525.3,0-787.9
	c-2.2-7-26.8-82.4-96.7-103.3c-68-20.3-151,19.4-186.8,100C607.7,393.4,608.1,633.4,608.5,873.3z"/>
</svg>
