<?xml version="1.0" encoding="iso-8859-1"?>
<!-- Generator: Adobe Illustrator 18.0.0, SVG Export Plug-In . SVG Version: 6.00 Build 0)  -->
<!DOCTYPE svg PUBLIC "-//W3C//DTD SVG 1.1//EN" "http://www.w3.org/Graphics/SVG/1.1/DTD/svg11.dtd">
<svg version="1.1" id="Capa_1" xmlns="http://www.w3.org/2000/svg" xmlns:xlink="http://www.w3.org/1999/xlink" x="0px" y="0px"
	 viewBox="0 0 60 60" style="enable-background:new 0 0 60 60;" xml:space="preserve">
<g>
	<path d="M36,30.5v24h24v-24H36z M58,52.5h-9V39.914l4.293,4.293l1.414-1.414L48,36.086l-6.707,6.707l1.414,1.414L47,39.914V52.5h-9
		v-20h20V52.5z"/>
	<path d="M0,6.732v37.962c5.233-4.049,16.986-13.204,22.449-17.944L0,6.732z"/>
	<polygon points="58,27.5 58,6.732 35.587,26.717 36.558,27.5 	"/>
	<path d="M31.299,27.861L56.376,5.5H1.624l25.076,22.36C27.968,28.993,30.031,28.993,31.299,27.861z"/>
	<path d="M29,30.693c-1.315,0-2.63-0.447-3.631-1.34l-1.414-1.261c-5.521,4.814-17.851,14.41-23.007,18.398
		C0.966,46.49,0.981,46.5,1,46.5h32V29.024l-0.37,0.33C31.63,30.247,30.315,30.693,29,30.693z"/>
</g>
<g>
</g>
<g>
</g>
<g>
</g>
<g>
</g>
<g>
</g>
<g>
</g>
<g>
</g>
<g>
</g>
<g>
</g>
<g>
</g>
<g>
</g>
<g>
</g>
<g>
</g>
<g>
</g>
<g>
</g>
</svg>
