<?xml version="1.0" encoding="utf-8"?>
<!-- Generator: Adobe Illustrator 23.0.0, SVG Export Plug-In . SVG Version: 6.00 Build 0)  -->
<svg version="1.1" id="레이어_1" xmlns="http://www.w3.org/2000/svg" xmlns:xlink="http://www.w3.org/1999/xlink" x="0px"
	 y="0px" viewBox="0 0 576.5 493.5" style="enable-background:new 0 0 576.5 493.5;" xml:space="preserve">
<style type="text/css">
	.st0{fill:#F2F2F2;}
	.st1{fill:#FFFFFF;}
	.st2{fill:#3F3D56;}
	.st3{fill:#E84B35;}
</style>
<path class="st0" d="M169.4,488.4c9.3-7.8,14.9-20.2,13.4-32.2s-10.6-23.1-22.4-25.6s-25.3,4.5-28.9,16.1
	c-2-22.3-4.3-45.5-16.1-64.5c-10.7-17.2-29.3-29.5-49.5-31.7s-41.4,6.1-54,22s-15.6,39-6.8,57.3c6.5,13.5,18.4,23.5,31,31.6
	c40.5,26.1,89,36.7,136.6,29.9"/>
<path class="st1" d="M31.8,356.9c16.6,13.5,31.9,28.7,45.6,45.2c21.4,25.8,38.7,54.7,51.3,85.7c0.9,2.3-2.8,3.2-3.7,1
	c-8-19.6-18-38.4-29.6-56.1c-18.2-27.6-40.6-52.3-66.2-73.2C27.2,358.1,29.9,355.4,31.8,356.9z"/>
<path class="st0" d="M175.8,488.4c-9.3-7.8-14.9-20.2-13.4-32.2s10.6-23.1,22.4-25.6s25.3,4.5,28.9,16.1c2-22.3,4.3-45.5,16.1-64.5
	c10.7-17.2,29.3-29.5,49.5-31.7s41.4,6.1,54,22s15.6,39,6.8,57.3c-6.5,13.5-18.4,23.5-31,31.6c-40.5,26.1-89,36.7-136.6,29.9"/>
<path class="st1" d="M313.4,356.9c-16.6,13.5-31.9,28.7-45.6,45.2c-21.4,25.8-38.7,54.7-51.3,85.7c-0.9,2.3,2.8,3.2,3.7,1
	c20.7-50.4,53.6-94.9,95.9-129.3C318,358.1,315.3,355.4,313.4,356.9L313.4,356.9z"/>
<circle class="st0" cx="203.3" cy="191" r="31"/>
<path class="st0" d="M107.7,84.1h213.6v11.7H135c-46.1,0-83.4,37.3-83.4,83.4c0,0,0,0,0,0V312H28.2c-2.2,0-3.9-1.7-3.9-3.9V167.6
	C24.3,121.5,61.6,84.1,107.7,84.1C107.7,84.1,107.7,84.1,107.7,84.1z"/>
<path class="st2" d="M148.8,489V311.5h52V489c0,2.5-2,4.5-4.5,4.5h-43C150.8,493.5,148.8,491.5,148.8,489z"/>
<path class="st2" d="M13.3,308V163.7c0.1-47.8,38.8-86.6,86.7-86.7h220.3v236h-302C15.5,313,13.3,310.8,13.3,308z M318.3,79H99.9
	c-46.7,0.1-84.6,37.9-84.7,84.7V308c0,1.7,1.3,3,3,3h300V79z"/>
<path class="st3" d="M203.3,207c-9.9,0-18-8.1-18-18V60c0-1.7-1.3-3-3-3h-70c-2.8,0-5-2.2-5-5V5c0-2.8,2.2-5,5-5h104
	c2.8,0,5,2.2,5,5v184C221.3,198.9,213.2,207,203.3,207z"/>
<path class="st2" d="M328.3,75L328.3,75c31.4-0.1,56.9,25.3,57,56.8v164.3h112c9.4,0,17,7.6,17,16.9h-243V131.8
	C271.3,100.3,296.9,74.9,328.3,75z"/>
<path class="st1" d="M431.3,186.6l8.8,1.7c1,0.2,2.1-0.1,2.9-0.7l7-5.5L431.3,186.6z"/>
<circle class="st1" cx="203.3" cy="189" r="7"/>
</svg>
