<?xml version="1.0" encoding="iso-8859-1"?>
<!-- Generator: Adobe Illustrator 18.0.0, SVG Export Plug-In . SVG Version: 6.00 Build 0)  -->
<!DOCTYPE svg PUBLIC "-//W3C//DTD SVG 1.1//EN" "http://www.w3.org/Graphics/SVG/1.1/DTD/svg11.dtd">
<svg version="1.1" id="Capa_1" xmlns="http://www.w3.org/2000/svg" xmlns:xlink="http://www.w3.org/1999/xlink" x="0px" y="0px"
	 viewBox="0 0 330 330" style="enable-background:new 0 0 330 330;" xml:space="preserve">
<path d="M255,60h-75V30h25c8.284,0,15-6.716,15-15s-6.716-15-15-15h-40c-8.284,0-15,6.716-15,15v45H75c-24.813,0-45,20.187-45,45
	v110.002c0,8.283,6.716,15,15,15h60h65V315c0,8.284,6.716,15,15,15c8.284,0,15-6.716,15-15v-84.998h85c8.284,0,15-6.717,15-15V105
	C300,80.187,279.813,60,255,60z M60,200.002V105c0-8.271,6.729-15,15-15s15,6.729,15,15v95.002H60z M270,200.002H120V105
	c0-5.258-0.915-10.305-2.58-15H150v45c0,8.284,6.716,15,15,15c8.284,0,15-6.716,15-15V90h75c8.271,0,15,6.729,15,15V200.002z"/>
<g>
</g>
<g>
</g>
<g>
</g>
<g>
</g>
<g>
</g>
<g>
</g>
<g>
</g>
<g>
</g>
<g>
</g>
<g>
</g>
<g>
</g>
<g>
</g>
<g>
</g>
<g>
</g>
<g>
</g>
</svg>
